REM DIRINDEX 1\2\6,1\2\7,1\2\8,1\2\9,1\3\10,1\3\11,1\4\12,1\4\13,1\4\14,1\5\15,1\5\16,1\5\17
REM DIRNAME folder01,folder02,folder03,folder04,folder05,folder06,folder07,folder08,folder09,folder10,folder11,folder12,folder13,folder14,folder15,folder16,folder17
TITLE ""
FILE "1900_3_103 sec18_1738_1757.mp3" MP3
  TRACK 01 AUDIO
    TITLE "0:"
    INDEX 01 00:00:00
  TRACK 02 AUDIO
    TITLE "17:cjc020_9461"
    INDEX 01 00:00:13
  TRACK 03 AUDIO
    TITLE "0:"
    INDEX 01 00:01:28
  TRACK 04 AUDIO
    TITLE "16:cjc020_9462"
    INDEX 01 00:01:34
  TRACK 05 AUDIO
    TITLE "0:"
    INDEX 01 00:03:02
  TRACK 06 AUDIO
    TITLE "17:cjc020_9463"
    INDEX 01 00:03:57
  TRACK 07 AUDIO
    TITLE "0:"
    INDEX 01 00:05:18
  TRACK 08 AUDIO
    TITLE "16:cjc020_9464"
    INDEX 01 00:05:24
  TRACK 09 AUDIO
    TITLE "0:"
    INDEX 01 00:06:39
  TRACK 10 AUDIO
    TITLE "17:cjc020_9465"
    INDEX 01 00:07:25
  TRACK 11 AUDIO
    TITLE "0:"
    INDEX 01 00:08:44
  TRACK 12 AUDIO
    TITLE "16:cjc020_9466"
    INDEX 01 00:08:48
  TRACK 13 AUDIO
    TITLE "0:"
    INDEX 01 00:09:49
  TRACK 14 AUDIO
    TITLE "17:cjc020_9467"
    INDEX 01 00:10:29
  TRACK 15 AUDIO
    TITLE "0:"
    INDEX 01 00:11:42
  TRACK 16 AUDIO
    TITLE "16:cjc020_9468"
    INDEX 01 00:11:44
  TRACK 17 AUDIO
    TITLE "0:"
    INDEX 01 00:12:46
  TRACK 18 AUDIO
    TITLE "17:cjc020_9469"
    INDEX 01 00:13:30
  TRACK 19 AUDIO
    TITLE "0:"
    INDEX 01 00:14:41
  TRACK 20 AUDIO
    TITLE "16:cjc020_9470"
    INDEX 01 00:14:47
  TRACK 21 AUDIO
    TITLE "0:"
    INDEX 01 00:15:60
  TRACK 22 AUDIO
    TITLE "17:cjc020_9471"
    INDEX 01 00:16:48
  TRACK 23 AUDIO
    TITLE "0:"
    INDEX 01 00:17:59
  TRACK 24 AUDIO
    TITLE "16:cjc020_9472"
    INDEX 01 00:17:69
  TRACK 25 AUDIO
    TITLE "0:"
    INDEX 01 00:19:20
  TRACK 26 AUDIO
    TITLE "17:cjc020_9473"
    INDEX 01 00:20:04
  TRACK 27 AUDIO
    TITLE "0:"
    INDEX 01 00:21:09
  TRACK 28 AUDIO
    TITLE "16:cjc020_9474"
    INDEX 01 00:21:13
  TRACK 29 AUDIO
    TITLE "0:"
    INDEX 01 00:22:19
  TRACK 30 AUDIO
    TITLE "17:cjc020_9475"
    INDEX 01 00:23:08
  TRACK 31 AUDIO
    TITLE "0:"
    INDEX 01 00:24:08
  TRACK 32 AUDIO
    TITLE "16:cjc020_9476"
    INDEX 01 00:24:14
  TRACK 33 AUDIO
    TITLE "0:"
    INDEX 01 00:25:31
  TRACK 34 AUDIO
    TITLE "17:cjc020_9477"
    INDEX 01 00:26:11
  TRACK 35 AUDIO
    TITLE "0:"
    INDEX 01 00:27:22
  TRACK 36 AUDIO
    TITLE "16:cjc020_9478"
    INDEX 01 00:27:26
  TRACK 37 AUDIO
    TITLE "0:"
    INDEX 01 00:28:45
  TRACK 38 AUDIO
    TITLE "17:cjc020_9479"
    INDEX 01 00:29:27
  TRACK 39 AUDIO
    TITLE "0:"
    INDEX 01 00:31:43
  TRACK 40 AUDIO
    TITLE "16:cjc020_9480"
    INDEX 01 00:31:47
  TRACK 41 AUDIO
    TITLE "0:"
    INDEX 01 00:32:60
  TRACK 42 AUDIO
    TITLE "17:cjc020_9481"
    INDEX 01 00:33:40
  TRACK 43 AUDIO
    TITLE "0:"
    INDEX 01 00:36:29
  TRACK 44 AUDIO
    TITLE "16:cjc020_9482"
    INDEX 01 00:36:40
  TRACK 45 AUDIO
    TITLE "0:"
    INDEX 01 00:37:61
  TRACK 46 AUDIO
    TITLE "17:cjc020_9483"
    INDEX 01 00:38:45
  TRACK 47 AUDIO
    TITLE "0:"
    INDEX 01 00:39:66
  TRACK 48 AUDIO
    TITLE "16:cjc020_9484"
    INDEX 01 00:39:68
  TRACK 49 AUDIO
    TITLE "0:"
    INDEX 01 00:41:06
  TRACK 50 AUDIO
    TITLE "17:cjc020_9485"
    INDEX 01 00:41:65
  TRACK 51 AUDIO
    TITLE "0:"
    INDEX 01 00:42:68
  TRACK 52 AUDIO
    TITLE "16:cjc020_9486"
    INDEX 01 00:42:72
  TRACK 53 AUDIO
    TITLE "0:"
    INDEX 01 00:44:18
  TRACK 54 AUDIO
    TITLE "17:cjc020_9487"
    INDEX 01 00:44:73
  TRACK 55 AUDIO
    TITLE "0:"
    INDEX 01 00:46:13
  TRACK 56 AUDIO
    TITLE "16:cjc020_9488"
    INDEX 01 00:46:19
  TRACK 57 AUDIO
    TITLE "0:"
    INDEX 01 00:47:36
  TRACK 58 AUDIO
    TITLE "17:cjc020_9489"
    INDEX 01 00:48:20
  TRACK 59 AUDIO
    TITLE "0:"
    INDEX 01 00:49:35
  TRACK 60 AUDIO
    TITLE "16:cjc020_9490"
    INDEX 01 00:49:41
  TRACK 61 AUDIO
    TITLE "0:"
    INDEX 01 00:50:46
  TRACK 62 AUDIO
    TITLE "17:cjc020_9491"
    INDEX 01 00:51:30
  TRACK 63 AUDIO
    TITLE "0:"
    INDEX 01 00:53:55
  TRACK 64 AUDIO
    TITLE "16:cjc020_9492"
    INDEX 01 00:53:60
  TRACK 65 AUDIO
    TITLE "0:"
    INDEX 01 00:54:66
  TRACK 66 AUDIO
    TITLE "17:cjc020_9493"
    INDEX 01 00:55:51
  TRACK 67 AUDIO
    TITLE "0:"
    INDEX 01 00:56:47
  TRACK 68 AUDIO
    TITLE "16:cjc020_9494"
    INDEX 01 00:56:55
  TRACK 69 AUDIO
    TITLE "0:"
    INDEX 01 00:57:56
  TRACK 70 AUDIO
    TITLE "17:cjc020_9495"
    INDEX 01 00:58:40
  TRACK 71 AUDIO
    TITLE "0:"
    INDEX 01 00:59:51
  TRACK 72 AUDIO
    TITLE "16:cjc020_9496"
    INDEX 01 00:59:57
  TRACK 73 AUDIO
    TITLE "0:"
    INDEX 01 01:00:64
  TRACK 74 AUDIO
    TITLE "17:cjc020_9497"
    INDEX 01 01:01:46
  TRACK 75 AUDIO
    TITLE "0:"
    INDEX 01 01:03:71
  TRACK 76 AUDIO
    TITLE "16:cjc020_9498"
    INDEX 01 01:04:07
  TRACK 77 AUDIO
    TITLE "0:"
    INDEX 01 01:05:15
  TRACK 78 AUDIO
    TITLE "17:cjc020_9499"
    INDEX 01 01:05:73
  TRACK 79 AUDIO
    TITLE "0:"
    INDEX 01 01:07:17
  TRACK 80 AUDIO
    TITLE "16:cjc020_9500"
    INDEX 01 01:07:23
  TRACK 81 AUDIO
    TITLE "0:"
    INDEX 01 01:08:64
